<svg xmlns="http://www.w3.org/2000/svg" xmlns:xlink="http://www.w3.org/1999/xlink" width="2000" zoomAndPan="magnify" viewBox="0 0 1500 1499.999933" height="2000" preserveAspectRatio="xMidYMid meet" version="1.0"><defs><g/></defs><g fill="#ffffff" fill-opacity="1"><g transform="translate(22.777984, 820.704827)"><g><path d="M 117.796875 0 L 104.796875 -37.421875 L 48.96875 -37.421875 L 35.96875 0 L 5.296875 0 L 58.734375 -146.484375 L 94.921875 -146.484375 L 148.15625 0 Z M 76.828125 -123.921875 L 76.203125 -121.640625 C 75.515625 -119.140625 74.679688 -116.296875 73.703125 -113.109375 C 72.734375 -109.921875 66.773438 -92.390625 55.828125 -60.515625 L 97.9375 -60.515625 L 83.484375 -102.609375 L 79.015625 -116.75 Z M 76.828125 -123.921875 "/></g></g></g><g fill="#ffffff" fill-opacity="1"><g transform="translate(176.490092, 820.704827)"><g><path d="M 114.875 0 L 80.890625 -55.625 L 44.90625 -55.625 L 44.90625 0 L 14.25 0 L 14.25 -146.484375 L 87.4375 -146.484375 C 104.90625 -146.484375 118.382812 -142.722656 127.875 -135.203125 C 137.375 -127.679688 142.125 -116.890625 142.125 -102.828125 C 142.125 -92.566406 139.210938 -83.707031 133.390625 -76.25 C 127.566406 -68.800781 119.695312 -63.898438 109.78125 -61.546875 L 149.40625 0 Z M 111.25 -101.578125 C 111.25 -115.640625 102.238281 -122.671875 84.21875 -122.671875 L 44.90625 -122.671875 L 44.90625 -79.4375 L 85.046875 -79.4375 C 93.640625 -79.4375 100.15625 -81.375 104.59375 -85.25 C 109.03125 -89.132812 111.25 -94.578125 111.25 -101.578125 Z M 111.25 -101.578125 "/></g></g></g><g fill="#ffffff" fill-opacity="1"><g transform="translate(330.2022, 820.704827)"><g><path d="M 80.359375 -122.78125 L 80.359375 0 L 49.703125 0 L 49.703125 -122.78125 L 2.390625 -122.78125 L 2.390625 -146.484375 L 127.78125 -146.484375 L 127.78125 -122.78125 Z M 80.359375 -122.78125 "/></g></g></g><g fill="#ffffff" fill-opacity="1"><g transform="translate(460.218326, 820.704827)"><g><path d="M 14.25 0 L 14.25 -146.484375 L 44.90625 -146.484375 L 44.90625 0 Z M 14.25 0 "/></g></g></g><g fill="#ffffff" fill-opacity="1"><g transform="translate(519.354358, 820.704827)"><g><path d="M 44.90625 -122.78125 L 44.90625 -77.453125 L 119.875 -77.453125 L 119.875 -53.75 L 44.90625 -53.75 L 44.90625 0 L 14.25 0 L 14.25 -146.484375 L 122.265625 -146.484375 L 122.265625 -122.78125 Z M 44.90625 -122.78125 "/></g></g></g><g fill="#ffffff" fill-opacity="1"><g transform="translate(649.370483, 820.704827)"><g><path d="M 14.25 0 L 14.25 -146.484375 L 44.90625 -146.484375 L 44.90625 0 Z M 14.25 0 "/></g></g></g><g fill="#ffffff" fill-opacity="1"><g transform="translate(708.506515, 820.704827)"><g><path d="M 82.65625 -22.046875 C 101.15625 -22.046875 114.007812 -31.332031 121.21875 -49.90625 L 147.9375 -39.8125 C 142.1875 -25.675781 133.75 -15.160156 122.625 -8.265625 C 111.5 -1.367188 98.175781 2.078125 82.65625 2.078125 C 59.082031 2.078125 40.867188 -4.59375 28.015625 -17.9375 C 15.160156 -31.28125 8.734375 -49.941406 8.734375 -73.921875 C 8.734375 -97.972656 14.9375 -116.441406 27.34375 -129.328125 C 39.75 -142.222656 57.734375 -148.671875 81.296875 -148.671875 C 98.484375 -148.671875 112.484375 -145.222656 123.296875 -138.328125 C 134.109375 -131.429688 141.703125 -121.296875 146.078125 -107.921875 L 119.046875 -100.53125 C 116.753906 -107.882812 112.265625 -113.722656 105.578125 -118.046875 C 98.890625 -122.378906 91.003906 -124.546875 81.921875 -124.546875 C 68.054688 -124.546875 57.535156 -120.25 50.359375 -111.65625 C 43.191406 -103.0625 39.609375 -90.484375 39.609375 -73.921875 C 39.609375 -57.078125 43.296875 -44.21875 50.671875 -35.34375 C 58.054688 -26.476562 68.71875 -22.046875 82.65625 -22.046875 Z M 82.65625 -22.046875 "/></g></g></g><g fill="#ffffff" fill-opacity="1"><g transform="translate(862.218623, 820.704827)"><g><path d="M 14.25 0 L 14.25 -146.484375 L 44.90625 -146.484375 L 44.90625 -23.703125 L 123.515625 -23.703125 L 123.515625 0 Z M 14.25 0 "/></g></g></g><g fill="#ffffff" fill-opacity="1"><g transform="translate(992.234749, 820.704827)"><g><path d="M 14.25 0 L 14.25 -146.484375 L 44.90625 -146.484375 L 44.90625 0 Z M 14.25 0 "/></g></g></g><g fill="#ffffff" fill-opacity="1"><g transform="translate(1051.37078, 820.704827)"><g><path d="M 14.25 0 L 14.25 -146.484375 L 129.4375 -146.484375 L 129.4375 -122.78125 L 44.90625 -122.78125 L 44.90625 -85.984375 L 123.09375 -85.984375 L 123.09375 -62.28125 L 44.90625 -62.28125 L 44.90625 -23.703125 L 133.703125 -23.703125 L 133.703125 0 Z M 14.25 0 "/></g></g></g><g fill="#ffffff" fill-opacity="1"><g transform="translate(1193.338829, 820.704827)"><g><path d="M 103.453125 0 L 39.609375 -112.796875 C 40.859375 -101.847656 41.484375 -93.046875 41.484375 -86.390625 L 41.484375 0 L 14.25 0 L 14.25 -146.484375 L 49.28125 -146.484375 L 114.046875 -32.75 C 112.796875 -43.21875 112.171875 -52.75 112.171875 -61.34375 L 112.171875 -146.484375 L 139.421875 -146.484375 L 139.421875 0 Z M 103.453125 0 "/></g></g></g><g fill="#ffffff" fill-opacity="1"><g transform="translate(1347.050937, 820.704827)"><g><path d="M 80.359375 -122.78125 L 80.359375 0 L 49.703125 0 L 49.703125 -122.78125 L 2.390625 -122.78125 L 2.390625 -146.484375 L 127.78125 -146.484375 L 127.78125 -122.78125 Z M 80.359375 -122.78125 "/></g></g></g></svg>